<svg xmlns="http://www.w3.org/2000/svg" version="1.1" xmlns:xlink="http://www.w3.org/1999/xlink" xmlns:svgjs="http://svgjs.dev/svgjs" width="1500" height="939" viewBox="0 0 1500 939"><g transform="matrix(1,0,0,1,-0.9090909090909918,-1.5145161290323017)"><svg viewBox="0 0 396 248" data-background-color="#000000" preserveAspectRatio="xMidYMid meet" height="939" width="1500" xmlns="http://www.w3.org/2000/svg" xmlns:xlink="http://www.w3.org/1999/xlink"><g id="tight-bounds" transform="matrix(1,0,0,1,0.2400000000000091,0.4000000000000057)"><svg viewBox="0 0 395.52 247.2" height="247.2" width="395.52"><g><svg></svg></g><g><svg viewBox="0 0 395.52 247.2" height="247.2" width="395.52"><g transform="matrix(1,0,0,1,83.545316548418,47.215199999999996)"><svg viewBox="0 0 228.42936690316398 152.7696" height="152.7696" width="228.42936690316398"><g><svg viewBox="0 0 228.42936690316398 152.7696" height="152.7696" width="228.42936690316398"><g><svg viewBox="0 0 228.42936690316398 152.7696" height="152.7696" width="228.42936690316398"><g><svg viewBox="0 0 228.42936690316398 152.7696" height="152.7696" width="228.42936690316398"><g id="textblocktransform"><svg viewBox="0 0 228.42936690316398 152.7696" height="152.7696" width="228.42936690316398" id="textblock"><g><svg viewBox="0 0 228.42936690316398 152.7696" height="152.7696" width="228.42936690316398"><g transform="matrix(1,0,0,1,0,0)"><svg width="228.42936690316398" viewBox="0.82222211112 -36.8125 58.48277667207999 39.1125" height="152.7696" data-palette-color="#ffffff"><path d="M11.6-36.15L11.6-36.15Q11.4-36.6 11.5-36.6L11.5-36.6Q11.65-36.6 11.85-36.38 12.05-36.15 12.1-36.1L12.1-36.1Q12.6-35.35 13.2-34.48 13.8-33.6 14.35-32.4 14.9-31.2 15.35-29.63 15.8-28.05 16.05-25.9L16.05-25.9Q16.35-23.45 16.18-21.08 16-18.7 15.6-16.3L15.6-16.3Q15.55-16.2 15.5-15.8 15.45-15.4 15.3-15.4L15.3-15.4Q15.2-15.4 15.1-15.78 15-16.15 15-16.3L15-16.3Q14.9-16.85 14.8-17.6 14.7-18.35 14.63-19.18 14.55-20 14.53-20.78 14.5-21.55 14.5-22.15L14.5-22.15Q14.5-22.35 14.48-23.03 14.45-23.7 14.4-24.6 14.35-25.5 14.23-26.58 14.1-27.65 13.95-28.7L13.95-28.7Q14.05-27.15 13.95-25.6 13.85-24.05 13.7-22.48 13.55-20.9 13.45-19.33 13.35-17.75 13.45-16.15L13.45-16.15Q13.6-13.05 14.7-9.85 15.8-6.65 18.2-4.4L18.2-4.4Q18.5-4.1 18.45-4.1L18.45-4.1Q18.35-4.05 18.1-4.2L18.1-4.2Q16.35-5.2 15.2-6.6 14.05-8 13.33-9.65 12.6-11.3 12.25-13.08 11.9-14.85 11.85-16.65L11.85-16.65Q11.85-16.8 11.83-16.93 11.8-17.05 11.8-17.2L11.8-17.2Q10.8-14.35 9.58-11.7 8.35-9.05 7.18-6.6 6-4.15 4.98-1.98 3.95 0.2 3.35 2.05L3.35 2.05Q3.25 2.3 3.2 2.3L3.2 2.3Q3.1 2.3 3.1 2.15 3.1 2 3.1 1.95L3.1 1.95Q3.15-0.4 4.05-2.98 4.95-5.55 6.18-8.33 7.4-11.1 8.75-14.03 10.1-16.95 11.1-20L11.1-20Q11.7-21.95 12.13-24.05 12.55-26.15 12.65-28.25 12.75-30.35 12.5-32.38 12.25-34.4 11.6-36.15ZM17.8-7.35L17.8-7.35Q18.35-6.2 19.25-5.2L19.25-5.2Q19.6-7.3 20.6-9.38 21.6-11.45 22.88-13.55 24.15-15.65 25.55-17.75 26.95-19.85 28.15-22L28.15-22Q29.05-23.55 29.68-25.35 30.3-27.15 30.58-29.03 30.85-30.9 30.73-32.75 30.6-34.6 29.95-36.25L29.95-36.25Q29.8-36.5 29.9-36.6L29.9-36.6Q30-36.7 30.23-36.48 30.45-36.25 30.5-36.15L30.5-36.15Q31.1-35.3 31.48-33.93 31.85-32.55 32.02-30.88 32.2-29.2 32.2-27.35 32.2-25.5 32.05-23.65L32.05-23.65Q31.85-21.2 31.33-18.3 30.8-15.4 30.05-13L30.05-13Q30-12.9 29.88-12.55 29.75-12.2 29.6-12.2L29.6-12.2Q29.5-12.25 29.45-12.63 29.4-13 29.4-13.1L29.4-13.1Q29.4-13.65 29.43-14.43 29.45-15.2 29.5-16.03 29.55-16.85 29.63-17.63 29.7-18.4 29.8-18.95L29.8-18.95Q29.85-19.25 29.98-20.33 30.1-21.4 30.2-22.75L30.2-22.75Q29.6-21.35 29.25-20.25 28.9-19.15 28.65-18.1 28.4-17.05 28.23-15.9 28.05-14.75 27.9-13.2L27.9-13.2Q27.75-11.65 27.78-9.95 27.8-8.25 28.13-6.6 28.45-4.95 29.08-3.38 29.7-1.8 30.7-0.5L30.7-0.5Q30.9-0.2 30.8-0.15L30.8-0.15Q30.7-0.1 30.55-0.25L30.55-0.25Q28.95-1.55 28.03-3.18 27.1-4.8 26.65-6.6 26.2-8.4 26.18-10.28 26.15-12.15 26.35-13.95L26.35-13.95Q26.45-14.6 26.53-15.25 26.6-15.9 26.7-16.6L26.7-16.6Q25.55-14.75 24.4-13 23.25-11.25 22.25-9.53 21.25-7.8 20.48-6.13 19.7-4.45 19.3-2.8L19.3-2.8Q19.2-2.55 19.2-2.55L19.2-2.55Q19.1-2.55 19.1-2.75 19.1-2.95 19.1-3L19.1-3Q19.1-3.4 19.1-3.8 19.1-4.2 19.2-4.6L19.2-4.6Q18.8-4.8 18.5-4.98 18.2-5.15 17.93-5.4 17.65-5.65 17.38-6 17.1-6.35 16.8-6.9L16.8-6.9Q16.55-7.4 16.3-8.1 16.05-8.8 15.88-9.47 15.7-10.15 15.68-10.63 15.65-11.1 15.8-11.1L15.8-11.1Q15.9-11.1 16.03-10.93 16.15-10.75 16.3-10.5 16.45-10.25 16.55-10 16.65-9.75 16.7-9.65L16.7-9.65Q16.95-9.05 17.23-8.47 17.5-7.9 17.8-7.35ZM18.85-17.1L18.85-16.6Q19.95-18.75 21.13-20.78 22.3-22.8 23-24L23-24Q24.2-26.15 25.5-28.23 26.8-30.3 27.75-31.9L27.75-31.9Q27.85-32.15 27.98-32.35 28.1-32.55 28.2-32.45L28.2-32.45Q28.3-32.45 28.25-32.2 28.2-31.95 28.15-31.7L28.15-31.7Q27.45-28.1 25.63-24.9 23.8-21.7 21.8-18.45L21.8-18.45Q21.1-17.35 20.58-16.63 20.05-15.9 19.68-15.23 19.3-14.55 19.05-13.75 18.8-12.95 18.7-11.7L18.7-11.7Q18.9-12.25 19.15-12.75 19.4-13.25 19.65-13.7L19.65-13.7Q21.05-16.1 22.8-18.5 24.55-20.9 26.25-23L26.25-23Q26.35-23.1 26.63-23.43 26.9-23.75 27-23.7L27-23.7Q27.1-23.65 26.98-23.25 26.85-22.85 26.8-22.65L26.8-22.65Q26.55-22.1 26.18-21.3 25.8-20.5 25.38-19.68 24.95-18.85 24.5-18.07 24.05-17.3 23.7-16.8L23.7-16.8Q23.5-16.5 22.85-15.6 22.2-14.7 21.45-13.35 20.7-12 19.98-10.3 19.25-8.6 18.9-6.7L18.9-6.7Q18.75-7 18.53-7.45 18.3-7.9 18-8.9L18-8.9Q17.1-12.05 17.03-15.28 16.95-18.5 17-21.9L17-21.9Q17.05-24.05 17.03-26.2 17-28.35 16.3-30.75L16.3-30.75Q16.25-30.95 16.3-31.05L16.3-31.05Q16.4-31.05 16.6-30.75L16.6-30.75Q17.5-29.8 17.95-27.98 18.4-26.15 18.6-24.13 18.8-22.1 18.82-20.18 18.85-18.25 18.85-17.1L18.85-17.1ZM5.7-20.95L5.7-20.95Q6.55-23.55 7.63-26.2 8.7-28.85 9.5-30.95L9.5-30.95Q9.6-31.2 9.73-31.45 9.85-31.7 9.95-31.65L9.95-31.65Q10.05-31.65 10.03-31.33 10-31 10-30.75L10-30.75Q9.55-26.65 8.2-22.6 6.85-18.55 5.2-14.6L5.2-14.6Q4.2-12.1 3.05-9.58 1.9-7.05 1.15-4.1L1.15-4.1Q1.05-3.85 1.07-3.8 1.1-3.75 1.05-3.75L1.05-3.75Q0.9-3.85 0.9-4.2L0.9-4.2Q0.65-5.7 1.2-7.98 1.75-10.25 2.6-12.68 3.45-15.1 4.35-17.32 5.25-19.55 5.7-20.95ZM3.55-9.05L3.55-9.05Q4.8-11.9 6.25-14.93 7.7-17.95 9.05-20.7L9.05-20.7Q9.1-20.85 9.33-21.25 9.55-21.65 9.75-21.6L9.75-21.6Q9.85-21.6 9.8-21.15 9.75-20.7 9.65-20.5L9.65-20.5Q9.5-19.8 9.25-18.82 9-17.85 8.68-16.82 8.35-15.8 8-14.83 7.65-13.85 7.35-13.2L7.35-13.2Q7.2-12.9 6.83-11.93 6.45-10.95 5.93-9.6 5.4-8.25 4.83-6.73 4.25-5.2 3.75-3.83 3.25-2.45 2.88-1.38 2.5-0.3 2.45 0.15L2.45 0.15Q2.35 0.65 2.25 0.65L2.25 0.65Q2.15 0.65 2.13 0.45 2.1 0.25 2.05 0.15L2.05 0.15Q1.8-0.45 1.83-1.6 1.85-2.75 2.1-4.05 2.35-5.35 2.73-6.7 3.1-8.05 3.55-9.05ZM33.35-13.35L33.35-13.35Q33.1-11.1 32.58-8.85 32.05-6.6 31.65-4.85L31.65-4.85Q31.45-4.2 31.35-4.25L31.35-4.25Q31.25-4.25 31.23-4.48 31.2-4.7 31.15-4.95L31.15-4.95Q30.75-8.3 31.25-11.65 31.75-15 32.35-18.5L32.35-18.5Q32.75-20.6 33-22.83 33.25-25.05 33-27.6L33-27.6Q33-27.8 33.1-27.9L33.1-27.9Q33.2-27.9 33.23-27.78 33.25-27.65 33.35-27.6L33.35-27.6Q34.1-26.5 34.23-24.58 34.35-22.65 34.2-20.55 34.05-18.45 33.77-16.5 33.5-14.55 33.35-13.35ZM10.7-32.45L10.7-32.45Q10.6-33.5 10.43-34.4 10.25-35.3 10-36.25L10-36.25Q9.95-36.35 9.95-36.5 9.95-36.65 10-36.65L10-36.65Q10.15-36.65 10.3-36.5L10.3-36.5 10.5-36.3Q11.05-35.55 11.4-34.83 11.75-34.1 11.85-32.45L11.85-32.45Q11.9-31.8 11.85-30.85 11.8-29.9 11.68-29.05 11.55-28.2 11.38-27.6 11.2-27 11.05-27.05L11.05-27.05Q10.95-27.05 10.9-27.33 10.85-27.6 10.83-27.95 10.8-28.3 10.8-28.68 10.8-29.05 10.8-29.2L10.8-29.2Q10.8-30.05 10.8-30.83 10.8-31.6 10.7-32.45ZM29-33.1L29-33.1Q28.95-34 28.83-34.8 28.7-35.6 28.45-36.45L28.45-36.45Q28.4-36.55 28.38-36.7 28.35-36.85 28.45-36.8L28.45-36.8Q28.55-36.7 28.63-36.65 28.7-36.6 28.8-36.55L28.8-36.55 28.9-36.45Q29.45-35.75 29.78-35.1 30.1-34.45 30.15-32.95L30.15-32.95Q30.15-32.4 30.03-31.55 29.9-30.7 29.73-29.93 29.55-29.15 29.33-28.63 29.1-28.1 28.9-28.2L28.9-28.2Q28.8-28.25 28.8-28.53 28.8-28.8 28.8-29.13 28.8-29.45 28.85-29.75 28.9-30.05 28.9-30.2L28.9-30.2Q29-31 29.03-31.7 29.05-32.4 29-33.1ZM30.75-3.5L30.75-3.5Q31.05-2.65 31.43-1.95 31.8-1.25 32.2-0.55L32.2-0.55Q32.25-0.5 32.3-0.38 32.35-0.25 32.25-0.25L32.25-0.25Q32.1-0.25 32.02-0.3 31.95-0.35 31.85-0.4L31.85-0.4Q31.75-0.45 31.7-0.5L31.7-0.5Q31-1.05 30.55-1.55 30.1-2.05 29.65-3.35L29.65-3.35Q29.5-3.85 29.35-4.6 29.2-5.35 29.15-6.05 29.1-6.75 29.15-7.25 29.2-7.75 29.4-7.75L29.4-7.75Q29.45-7.75 29.55-7.53 29.65-7.3 29.73-7.03 29.8-6.75 29.88-6.48 29.95-6.2 30-6.1L30-6.1Q30.25-5.4 30.4-4.75 30.55-4.1 30.75-3.5ZM38 0.8L38 0.8Q37.65 1.15 37.55 1.1L37.55 1.1Q37.45 1.05 37.55 0.88 37.65 0.7 37.7 0.6L37.7 0.6Q38.1 0.15 38.32-0.08 38.55-0.3 38.85-0.55L38.85-0.55Q37.65-2.15 37.1-3.98 36.55-5.8 36.45-7.75 36.35-9.7 36.62-11.7 36.9-13.7 37.35-15.6L37.35-15.6Q38.25-19.35 39.42-22.93 40.6-26.5 41.4-29.8L41.4-29.8Q39.8-29.5 38.52-29 37.25-28.5 36.85-27.9L36.85-27.9Q36.7-27.65 36.57-27.7 36.45-27.75 36.65-28.15L36.65-28.15Q37.05-29 38.1-29.68 39.15-30.35 40.5-30.8 41.85-31.25 43.42-31.5 45-31.75 46.45-31.7L46.45-31.7Q49.7-31.6 51.87-30.45 54.05-29.3 54.1-27.05L54.1-27.05Q54.1-25.65 53.12-24.25 52.15-22.85 50.77-21.63 49.4-20.4 47.85-19.43 46.3-18.45 45.2-17.9L45.2-17.9 45-17.2Q45.75-17.85 47-18.25 48.25-18.65 49.62-18.65 51-18.65 52.32-18.18 53.65-17.7 54.65-16.65L54.65-16.65Q56-15.15 56.37-13.23 56.75-11.3 56.15-9.45L56.15-9.45Q55.6-7.6 54.3-6.43 53-5.25 51.65-4.65L51.65-4.65Q51.5-4.55 51.1-4.42 50.7-4.3 50.6-4.45L50.6-4.45Q50.55-4.55 50.85-4.83 51.15-5.1 51.3-5.2L51.3-5.2Q52.65-6.1 53.6-7.65 54.55-9.2 54.77-10.88 55-12.55 54.4-14.1 53.8-15.65 52.05-16.5L52.05-16.5Q51.35-16.85 50.2-17.03 49.05-17.2 47.9-17.13 46.75-17.05 45.77-16.6 44.8-16.15 44.4-15.2L44.4-15.2Q45.3-15.75 46.45-16.05 47.6-16.35 48.77-16.32 49.95-16.3 51-15.88 52.05-15.45 52.75-14.6L52.75-14.6Q53.6-13.55 53.72-12.4 53.85-11.25 53.47-10.15 53.1-9.05 52.27-8.1 51.45-7.15 50.4-6.5L50.4-6.5Q49-5.65 47.3-4.83 45.6-4 43.9-3.13 42.2-2.25 40.65-1.28 39.1-0.3 38 0.8ZM44-13.5L44-13.5Q43.1-11.25 42.52-8.97 41.95-6.7 41.25-4.8L41.25-4.8Q41-4.15 40.9-4.2L40.9-4.2Q40.75-4.25 40.75-4.48 40.75-4.7 40.75-4.95L40.75-4.95Q40.9-8.75 41.85-12.48 42.8-16.2 43.9-20L43.9-20Q44.6-22.35 45.22-24.83 45.85-27.3 45.95-30.15L45.95-30.15 45.1-30.15Q45.15-28.8 45.02-27.48 44.9-26.15 44.65-25.2L44.65-25.2Q43.95-22.5 42.95-19.6 41.95-16.7 40.85-14.1L40.85-14.1Q40.8-14 40.62-13.63 40.45-13.25 40.3-13.3L40.3-13.3Q40.2-13.35 40.17-13.75 40.15-14.15 40.2-14.3L40.2-14.3Q40.25-14.9 40.42-15.8 40.6-16.7 40.77-17.65 40.95-18.6 41.17-19.5 41.4-20.4 41.6-21.05L41.6-21.05Q41.65-21.3 41.87-22.2 42.1-23.1 42.35-24.38 42.6-25.65 42.87-27.13 43.15-28.6 43.35-30L43.35-30Q42.95-30 42.75-29.95L42.75-29.95Q42.5-28.1 42.02-26.2 41.55-24.3 40.95-22.35 40.35-20.4 39.75-18.48 39.15-16.55 38.7-14.6L38.7-14.6Q38.3-12.95 38.1-11.15 37.9-9.35 37.9-7.58 37.9-5.8 38.2-4.1 38.5-2.4 39.15-0.85L39.15-0.85 39.6-1.3Q39.45-1.65 39.3-2.15 39.15-2.65 39.05-3.35L39.05-3.35Q38.95-3.9 38.92-4.75 38.9-5.6 38.95-6.4 39-7.2 39.1-7.75 39.2-8.3 39.4-8.3L39.4-8.3Q39.45-8.3 39.52-8.05 39.6-7.8 39.65-7.45 39.7-7.1 39.75-6.8 39.8-6.5 39.8-6.35L39.8-6.35Q39.85-5.9 39.9-5.35 39.95-4.8 40.02-4.2 40.1-3.6 40.17-3.03 40.25-2.45 40.4-2.05L40.4-2.05Q41.55-3.1 42.85-3.93 44.15-4.75 45.42-5.45 46.7-6.15 47.9-6.8 49.1-7.45 50-8.1L50-8.1Q51.55-9.15 52-10.78 52.45-12.4 51.45-13.7L51.45-13.7Q50.8-14.55 49.67-14.9 48.55-15.25 47.37-15.18 46.2-15.1 45.25-14.65 44.3-14.2 44-13.5ZM51.95-21.15L51.95-21.15Q52.05-21.1 51.72-20.63 51.4-20.15 51.3-19.95L51.3-19.95Q53-20.2 54.32-21.15 55.65-22.1 56.45-23.43 57.25-24.75 57.45-26.33 57.65-27.9 57.15-29.5L57.15-29.5Q56.65-31.1 55.5-32.2 54.35-33.3 52.85-34 51.35-34.7 49.6-35 47.85-35.3 46.1-35.27 44.35-35.25 42.75-34.95 41.15-34.65 39.95-34.1L39.95-34.1Q39.7-34 39.67-34 39.65-34 39.6-34.05L39.6-34.05Q39.55-34.2 39.85-34.4L39.85-34.4Q41.1-35.5 43.02-36.05 44.95-36.6 47.07-36.6 49.2-36.6 51.35-36.02 53.5-35.45 55.22-34.27 56.95-33.1 58.07-31.28 59.2-29.45 59.3-27L59.3-27Q59.35-25.5 58.9-24.28 58.45-23.05 57.7-22.1 56.95-21.15 55.97-20.48 55-19.8 53.95-19.35L53.95-19.35Q55.6-18.6 56.8-17.03 58-15.45 58.5-13.9L58.5-13.9Q59.1-11.85 58.77-10 58.45-8.15 57.67-6.65 56.9-5.15 55.92-4.08 54.95-3 54.25-2.55L54.25-2.55Q52.8-1.6 51.3-1.07 49.8-0.55 48.35-0.28 46.9 0 45.57 0.1 44.25 0.2 43.2 0.25L43.2 0.25Q42.4 0.35 42.4 0.2L42.4 0.2Q42.35 0.1 42.67 0.03 43-0.05 43.25-0.1L43.25-0.1Q45.2-0.45 47.1-1.05 49-1.65 50.95-2.65L50.95-2.65Q51.9-3.15 52.92-3.83 53.95-4.5 54.82-5.43 55.7-6.35 56.32-7.5 56.95-8.65 57.15-10.05L57.15-10.05Q57.4-11.8 57.07-13.53 56.75-15.25 55.4-16.85L55.4-16.85Q54.1-18.4 52.67-18.95 51.25-19.5 49.6-19.4L49.6-19.4Q49.2-19.4 49.2-19.45L49.2-19.45Q49.2-19.55 49.75-19.8 50.3-20.05 50.45-20.15L50.45-20.15Q50.9-20.45 51.4-20.85 51.9-21.25 51.95-21.15ZM52.55-26.85L52.55-26.85Q52.55-28.45 50.85-29.18 49.15-29.9 46.15-30.15L46.15-30.15Q46.5-28.6 46.6-27.3 46.7-26 46.57-24.73 46.45-23.45 46.12-22.08 45.8-20.7 45.4-19.05L45.4-19.05Q46.45-19.55 47.7-20.58 48.95-21.6 50.02-22.73 51.1-23.85 51.82-24.98 52.55-26.1 52.55-26.85ZM45.65-34.5L45.65-34.5Q47.35-34.6 49.52-34.13 51.7-33.65 53.45-32.6L53.45-32.6Q54.35-32.05 54.95-31.25 55.55-30.45 55.87-29.58 56.2-28.7 56.25-27.8 56.3-26.9 56.05-26.15L56.05-26.15Q56-26.05 55.95-25.88 55.9-25.7 55.8-25.53 55.7-25.35 55.6-25.23 55.5-25.1 55.4-25.15L55.4-25.15Q55.25-25.15 55.27-25.5 55.3-25.85 55.4-26.25L55.4-26.25Q55.65-27.65 55.17-28.7 54.7-29.75 53.75-30.48 52.8-31.2 51.55-31.65 50.3-32.1 48.97-32.35 47.65-32.6 46.4-32.63 45.15-32.65 44.25-32.55L44.25-32.55Q43-32.4 41.77-32.08 40.55-31.75 39.5-31.35 38.45-30.95 37.7-30.5 36.95-30.05 36.65-29.65L36.65-29.65Q36.35-29.25 36.3-29.4L36.3-29.4Q36.3-29.55 36.4-29.85L36.4-29.85Q36.75-30.85 37.7-31.68 38.65-32.5 39.9-33.1 41.15-33.7 42.65-34.05 44.15-34.4 45.65-34.5ZM43.2-0.8L43.2-0.8Q41.55-0.15 40.57 0.35 39.6 0.85 38.65 1.65L38.65 1.65Q38.55 1.7 38.45 1.85 38.35 2 38.25 1.95L38.25 1.95Q38.15 1.9 38.25 1.68 38.35 1.45 38.45 1.35L38.45 1.35Q38.95 0.65 39.75-0.03 40.55-0.7 42-1.3L42-1.3Q42.5-1.5 43.12-1.73 43.75-1.95 44.32-2.1 44.9-2.25 45.27-2.3 45.65-2.35 45.75-2.2L45.75-2.2Q45.8-2.1 45.45-1.9 45.1-1.7 44.65-1.48 44.2-1.25 43.77-1.05 43.35-0.85 43.2-0.8Z" opacity="1" transform="matrix(1,0,0,1,0,0)" fill="#ffffff" class="wordmark-text-0" data-fill-palette-color="primary" id="text-0"></path></svg></g></svg></g></svg></g></svg></g></svg></g></svg></g></svg></g><g><path d="M237.815 0c68.262 0 123.6 55.338 123.6 123.6 0 68.262-55.338 123.6-123.6 123.6-30.402 0-58.24-10.976-79.769-29.183l11.148 0c19.26 14.022 42.974 22.294 68.621 22.295 64.458 0 116.712-52.254 116.711-116.712 0-64.458-52.254-116.712-116.711-116.712-25.647 0-49.361 8.272-68.621 22.295l-11.148 0c21.528-18.206 49.366-29.183 79.769-29.183z" fill="#ffae22" stroke="transparent" data-fill-palette-color="tertiary"></path></g></svg></g><defs></defs></svg><rect width="395.52" height="247.2" fill="none" stroke="none" visibility="hidden"></rect></g></svg></g></svg>